<svg width="120" height="89" viewBox="0 0 120 89" fill="none" xmlns="http://www.w3.org/2000/svg">
<path d="M70.46 16L72.3609 16.6219L73.2186 14H70.46V16ZM56.72 58V60H58.17L58.6209 58.6219L56.72 58ZM46.28 58L44.3779 58.618L44.8269 60H46.28V58ZM37.04 29.56L38.9421 28.942L37.0703 23.1808L35.1438 28.9239L37.04 29.56ZM27.5 58V60H28.9386L29.3962 58.6361L27.5 58ZM17.12 58L15.2199 58.6243L15.672 60H17.12V58ZM3.32 16V14H0.557664L1.41994 16.6243L3.32 16ZM13.4 16L15.3042 15.3885L14.8583 14H13.4V16ZM22.88 45.52L20.9758 46.1315L22.8388 51.9329L24.7762 46.1559L22.88 45.52ZM32.78 16V14H31.3413L30.8838 15.3641L32.78 16ZM41.78 16L43.6834 15.386L43.2363 14H41.78V16ZM51.38 45.76L49.4766 46.374L51.3623 52.2198L53.28 46.3844L51.38 45.76ZM61.16 16V14H59.712L59.26 15.3756L61.16 16ZM68.5591 15.3781L54.8191 57.3781L58.6209 58.6219L72.3609 16.6219L68.5591 15.3781ZM56.72 56H46.28V60H56.72V56ZM48.1821 57.382L38.9421 28.942L35.1379 30.178L44.3779 58.618L48.1821 57.382ZM35.1438 28.9239L25.6038 57.3639L29.3962 58.6361L38.9362 30.1961L35.1438 28.9239ZM27.5 56H17.12V60H27.5V56ZM19.0201 57.3757L5.22006 15.3757L1.41994 16.6243L15.2199 58.6243L19.0201 57.3757ZM3.32 18H13.4V14H3.32V18ZM11.4958 16.6115L20.9758 46.1315L24.7842 44.9085L15.3042 15.3885L11.4958 16.6115ZM24.7762 46.1559L34.6762 16.6359L30.8838 15.3641L20.9838 44.8841L24.7762 46.1559ZM32.78 18H41.78V14H32.78V18ZM39.8766 16.614L49.4766 46.374L53.2834 45.146L43.6834 15.386L39.8766 16.614ZM53.28 46.3844L63.06 16.6244L59.26 15.3756L49.48 45.1356L53.28 46.3844ZM61.16 18H70.46V14H61.16V18ZM111.406 50.2H113.406V48.2H111.406V50.2ZM111.406 58V60H113.406V58H111.406ZM78.8863 58H76.8863V60H78.8863V58ZM78.8863 16V14H76.8863V16H78.8863ZM110.626 16H112.626V14H110.626V16ZM110.626 23.8V25.8H112.626V23.8H110.626ZM88.5463 23.8V21.8H86.5463V23.8H88.5463ZM88.5463 32.92H86.5463V34.92H88.5463V32.92ZM108.046 32.92H110.046V30.92H108.046V32.92ZM108.046 40.48V42.48H110.046V40.48H108.046ZM88.5463 40.48V38.48H86.5463V40.48H88.5463ZM88.5463 50.2H86.5463V52.2H88.5463V50.2ZM109.406 50.2V58H113.406V50.2H109.406ZM111.406 56H78.8863V60H111.406V56ZM80.8863 58V16H76.8863V58H80.8863ZM78.8863 18H110.626V14H78.8863V18ZM108.626 16V23.8H112.626V16H108.626ZM110.626 21.8H88.5463V25.8H110.626V21.8ZM86.5463 23.8V32.92H90.5463V23.8H86.5463ZM88.5463 34.92H108.046V30.92H88.5463V34.92ZM106.046 32.92V40.48H110.046V32.92H106.046ZM108.046 38.48H88.5463V42.48H108.046V38.48ZM86.5463 40.48V50.2H90.5463V40.48H86.5463ZM88.5463 52.2H111.406V48.2H88.5463V52.2Z" fill="#00B1FD"/>
<path fill-rule="evenodd" clip-rule="evenodd" d="M113 69H0V89H113V69ZM33.744 82.502C32.834 83.566 31.462 84.14 29.852 84.14C26.856 84.14 24.616 82.026 24.616 79.1C24.616 76.174 26.856 74.0601 29.866 74.0601C31.462 74.0601 32.834 74.634 33.744 75.698L32.568 76.804C31.854 76.0341 30.972 75.656 29.95 75.656C27.92 75.656 26.45 77.084 26.45 79.1C26.45 81.116 27.92 82.5439 29.95 82.5439C30.972 82.5439 31.854 82.166 32.568 81.382L33.744 82.502ZM42.3759 78.246V74.2H44.1959V84H42.3759V79.8H37.3079V84H35.4879V74.2H37.3079V78.246H42.3759ZM56.0619 84H54.1579L53.1779 81.7321H48.2779L47.3119 84H45.4359L49.8459 74.2H51.6379L56.0619 84ZM50.7279 76.02L48.8939 80.304H52.5759L50.7279 76.02ZM63.4262 80.78L65.6802 84H63.7202L61.7182 81.13C61.5922 81.144 61.4662 81.144 61.3402 81.144H59.1282V84H57.3082V74.2H61.3402C63.9162 74.2 65.5122 75.516 65.5122 77.686C65.5122 79.17 64.7562 80.262 63.4262 80.78ZM61.2562 79.646C62.8522 79.646 63.6782 78.918 63.6782 77.686C63.6782 76.454 62.8522 75.74 61.2562 75.74H59.1282V79.646H61.2562ZM69.3684 84H67.5484V74.2H69.3684V84ZM75.8271 84H74.0071V75.74H70.7591V74.2H78.8623H79.0751H80.8083L83.6783 78.974L86.5763 74.2H88.3683L84.5323 80.542V84H82.7123V80.5699L79.0751 74.5521V75.74H75.8271V84Z" fill="#028CC7"/>
</svg>
